<?xml version="1.0" encoding="UTF-8" standalone="no"?>
<svg width="512px" height="302px" viewBox="0 0 512 302" version="1.1" xmlns="http://www.w3.org/2000/svg" xmlns:xlink="http://www.w3.org/1999/xlink" xmlns:sketch="http://www.bohemiancoding.com/sketch/ns">
    <!-- Generator: Sketch 3.0.2 (7799) - http://www.bohemiancoding.com/sketch -->
    <title>Untitled 2</title>
    <description>Created with Sketch.</description>
    <defs></defs>
    <g id="Page-1" stroke="none" stroke-width="1" fill="none" fill-rule="evenodd" sketch:type="MSPage">
        <g id="logo" sketch:type="MSLayerGroup" transform="translate(0.000000, 1.000000)" fill="#1485C4">
            <path d="M138.643431,56.0074074 L185.163875,87.0098765 L138.643431,118.016049 L138.643431,56.0074074 L138.643431,56.0074074 Z M203.830284,87.0098765 L250.345793,56.0074074 L250.345793,118.016049 L203.830284,87.0098765 L203.830284,87.0098765 Z M261.04721,56.0074074 L307.578757,87.0098765 L261.04721,118.016049 L261.04721,56.0074074 L261.04721,56.0074074 Z M326.869436,87.0098765 L373.387412,56.0074074 L373.387412,118.016049 L326.869436,87.0098765 L326.869436,87.0098765 Z M142.94053,46.0061728 L189.467142,15.0061728 L189.467142,77.0111111 L142.94053,46.0061728 L142.94053,46.0061728 Z M199.527017,15.0061728 L246.04746,46.0061728 L199.527017,77.0111111 L199.527017,15.0061728 L199.527017,15.0061728 Z M265.343075,46.0061728 L311.867219,15.0061728 L311.867219,77.0111111 L265.343075,46.0061728 L265.343075,46.0061728 Z M322.578506,15.0061728 L369.098949,46.0061728 L322.578506,77.0111111 L322.578506,15.0061728 L322.578506,15.0061728 Z M317.150072,-0.25308642 C316.920598,-0.225925926 316.691123,-0.188888889 316.457947,-0.122222222 C316.22107,-0.0617283951 315.992829,0.0308641975 315.765822,0.130864198 C315.623942,0.192592593 315.469725,0.217283951 315.332781,0.292592593 C315.257523,0.334567901 315.202005,0.396296296 315.127981,0.441975309 C315.05519,0.487654321 314.971296,0.50617284 314.898506,0.556790123 L256.334342,39.5790123 L197.784983,0.556790123 C197.709725,0.50617284 197.632,0.487654321 197.551807,0.441975309 C197.477783,0.396296296 197.418564,0.334567901 197.34454,0.292592593 C197.201427,0.217283951 197.044742,0.188888889 196.904096,0.128395062 C196.673388,0.0308641975 196.456251,-0.0617283951 196.223075,-0.122222222 C195.981263,-0.188888889 195.757957,-0.220987654 195.523547,-0.25308642 C195.280501,-0.286419753 195.053494,-0.312345679 194.815383,-0.312345679 C194.574805,-0.312345679 194.351499,-0.286419753 194.11092,-0.25308642 C193.867875,-0.225925926 193.643335,-0.188888889 193.41386,-0.122222222 C193.175749,-0.0617283951 192.954911,0.0308641975 192.731605,0.130864198 C192.58479,0.192592593 192.434275,0.217283951 192.293629,0.292592593 C192.220839,0.334567901 192.162853,0.396296296 192.088829,0.441975309 C192.013571,0.487654321 191.922275,0.50617284 191.849484,0.556790123 L130.324357,41.5580247 C130.175075,41.6617284 130.05787,41.7950617 129.917224,41.9111111 C129.766708,42.0358025 129.616193,42.1493827 129.482949,42.2864198 C129.279383,42.4864198 129.118998,42.7111111 128.958612,42.9432099 C128.85868,43.0839506 128.743942,43.2160494 128.657581,43.3691358 C128.507065,43.637037 128.397263,43.9320988 128.29733,44.2185185 C128.236877,44.3567901 128.166554,44.4864198 128.129542,44.6333333 C128.00987,45.0753086 127.943248,45.5358025 127.943248,46.0061728 L127.982728,127.983951 C127.982728,131.250617 130.638959,133.902469 133.89972,133.902469 C134.981706,133.902469 135.99707,133.609877 136.863152,133.107407 L191.849484,95.9604938 C191.922275,95.9123457 192.013571,95.8925926 192.088829,95.8481481 C192.162853,95.8024691 192.220839,95.7382716 192.293629,95.6987654 C192.434275,95.6234568 192.58479,95.5950617 192.731605,95.5345679 C192.954911,95.4395062 193.175749,95.345679 193.41386,95.2790123 C193.643335,95.2160494 193.867875,95.1839506 194.11092,95.1518519 C194.351499,95.1234568 194.574805,95.0888889 194.815383,95.0888889 C195.053494,95.0888889 195.280501,95.1234568 195.523547,95.1518519 C195.757957,95.1839506 195.981263,95.2160494 196.223075,95.2790123 C196.456251,95.345679 196.673388,95.4395062 196.904096,95.5308642 C197.044742,95.5950617 197.201427,95.6234568 197.34454,95.6987654 C197.418564,95.7382716 197.477783,95.8024691 197.551807,95.8481481 C197.632,95.8938272 197.709725,95.9123457 197.784983,95.9604938 L253.365976,132.461728 C253.437533,132.504938 253.516492,132.519753 253.590516,132.565432 C253.673176,132.611111 253.731161,132.683951 253.815055,132.72716 C254.027258,132.844444 254.2592,132.904938 254.480039,132.98642 C254.626853,133.041975 254.762564,133.119753 254.91308,133.155556 C255.380665,133.283951 255.863055,133.359259 256.334342,133.359259 C256.821667,133.359259 257.295422,133.276543 257.764241,133.155556 C257.907354,133.116049 258.044299,133.041975 258.187412,132.988889 C258.414419,132.907407 258.645128,132.844444 258.862265,132.72716 C258.942458,132.683951 259.005378,132.611111 259.086805,132.562963 C259.153427,132.519753 259.236087,132.504938 259.307643,132.461728 L314.934284,95.9604938 C315.01201,95.9123457 315.095904,95.8925926 315.171161,95.8481481 C315.245186,95.8024691 315.297002,95.7382716 315.373494,95.6987654 C315.512906,95.6234568 315.662188,95.5950617 315.810236,95.5345679 C316.033542,95.4395062 316.265484,95.345679 316.501128,95.2790123 C316.73307,95.2160494 316.956376,95.1839506 317.190786,95.1518519 C317.426429,95.1234568 317.660839,95.0888889 317.901417,95.0888889 C318.141995,95.0888889 318.373937,95.1234568 318.607113,95.1518519 C318.840289,95.1839506 319.074699,95.2160494 319.305407,95.2790123 C319.539817,95.345679 319.76559,95.4395062 319.99013,95.5308642 C320.136945,95.5950617 320.286227,95.6234568 320.426872,95.6987654 C320.495961,95.7382716 320.546545,95.8024691 320.631672,95.8481481 C320.708164,95.8938272 320.794525,95.9123457 320.867316,95.9604938 L375.69573,133.080247 C376.572916,133.6 377.606786,133.902469 378.710978,133.902469 C381.977908,133.902469 384.63414,131.250617 384.63414,127.983951 L384.737773,46.0061728 C384.737773,45.5358025 384.667451,45.0753086 384.546545,44.6333333 C384.510766,44.4864198 384.436742,44.3567901 384.382458,44.2148148 C384.280058,43.9320988 384.173957,43.637037 384.023441,43.3691358 C383.929677,43.2160494 383.819875,43.0851852 383.717475,42.9432099 C383.549687,42.7111111 383.393002,42.4864198 383.19067,42.2864198 C383.064829,42.1493827 382.910612,42.0358025 382.763798,41.9111111 C382.619451,41.7950617 382.50348,41.6617284 382.349263,41.5580247 L320.82907,0.556790123 C320.753812,0.50617284 320.664983,0.487654321 320.590959,0.441975309 C320.513234,0.396296296 320.457716,0.334567901 320.381224,0.292592593 C320.247981,0.217283951 320.093764,0.188888889 319.949417,0.128395062 C319.72241,0.0308641975 319.499104,-0.0617283951 319.259759,-0.122222222 C319.026583,-0.188888889 318.792173,-0.220987654 318.568867,-0.25308642 C318.33199,-0.286419753 318.096347,-0.312345679 317.864405,-0.312345679 C317.613957,-0.312345679 317.390651,-0.286419753 317.150072,-0.25308642 L317.150072,-0.25308642 L317.150072,-0.25308642 Z" id="Icon" sketch:type="MSShapeGroup"></path>
            <g id="WordMark" transform="translate(0.000000, 183.950617)" sketch:type="MSShapeGroup">
                <path d="M52.6767807,0.514814815 L31.6292627,30.8160494 L10.0894843,0.514814815 L0.350380723,0.514814815 L0.350380723,50.6320988 L9.9365012,50.6320988 L10.0092916,17.5148148 L29.3900337,44.6111111 L32.2128193,44.6111111 L51.2209735,18.2938272 L51.2209735,50.6320988 L62.0050506,50.6320988 L62.0050506,0.514814815 L52.6767807,0.514814815" id="M"></path>
                <path d="M89.8183711,9.37530864 L127.842082,9.37530864 L127.842082,41.1345679 L89.8183711,41.1345679 L89.8183711,9.37530864 L89.8183711,9.37530864 Z M91.8700723,0.437037037 C87.0757783,0.437037037 83.805147,1.24938272 82.0581783,2.86666667 C80.3038072,4.48518519 79.4352578,7.62469136 79.4352578,12.2876543 L79.4352578,38.7123457 C79.4352578,43.3666667 80.3038072,46.5135802 82.0581783,48.1308642 C83.805147,49.7493827 87.0757783,50.5592593 91.8700723,50.5592593 L126.077841,50.5592593 C130.869667,50.5592593 134.142766,49.7493827 135.893436,48.1308642 C137.641639,46.5135802 138.516357,43.3666667 138.516357,38.7123457 L138.516357,12.2876543 C138.516357,7.62469136 137.641639,4.48518519 135.893436,2.86666667 C134.142766,1.24938272 130.869667,0.437037037 126.077841,0.437037037 L91.8700723,0.437037037 L91.8700723,0.437037037 Z" id="O"></path>
                <path d="M208.390169,0.437037037 L208.390169,34.2012346 L166.831807,0.437037037 L158.866814,0.437037037 L158.866814,50.5592593 L169.364665,50.5592593 L169.364665,16.5987654 L210.915624,50.5592593 L218.884318,50.5592593 L218.884318,0.437037037 L208.390169,0.437037037" id="N"></path>
                <path d="M233.094477,0.437037037 L233.094477,9.37530864 L256.123373,9.37530864 L256.123373,50.5592593 L267.779701,50.5592593 L267.779701,9.37530864 L290.903595,9.37530864 L290.903595,0.437037037 L233.094477,0.437037037" id="T"></path>
                <path d="M325.111364,10.1518519 L335.896675,30.545679 L313.939894,30.545679 L325.111364,10.1518519 L325.111364,10.1518519 Z M319.865523,0.437037037 L291.49332,50.5592593 L303.154583,50.5592593 L308.985214,39.5839506 L340.753889,39.5839506 L346.780684,50.5592593 L359.894053,50.5592593 L331.14186,0.437037037 L319.865523,0.437037037 L319.865523,0.437037037 Z" id="A"></path>
                <path d="M386.048,0.437037037 C381.250005,0.437037037 377.97814,1.24938272 376.228704,2.86666667 C374.481735,4.48518519 373.611952,7.62469136 373.611952,12.2876543 L373.611952,38.7123457 C373.611952,43.3666667 374.481735,46.5135802 376.228704,48.1308642 C377.97814,49.7493827 381.250005,50.5592593 386.048,50.5592593 L420.633292,50.5592593 C425.428819,50.5592593 428.699451,49.7493827 430.445186,48.1308642 C432.192154,46.5135802 433.066872,43.3666667 433.066872,38.7123457 L433.066872,21.4222222 L404.730448,21.4222222 L404.730448,29.9666667 L421.705407,29.9666667 L421.705407,41.1333333 L385.264578,41.1333333 L385.264578,9.37530864 L421.705407,9.37530864 L421.705407,14.3037037 L433.066872,12.9679012 L433.066872,11.8037037 C433.066872,7.4 432.163778,4.40493827 430.348954,2.81975309 C428.532896,1.23703704 425.301745,0.437037037 420.633292,0.437037037 L386.048,0.437037037" id="G"></path>
                <path d="M457.118535,0.437037037 L457.118535,50.5592593 L511.499104,50.5592593 L511.499104,41.1333333 L468.781031,41.1333333 L468.781031,29.9283951 L491.903692,29.9283951 L491.903692,21.382716 L468.781031,21.382716 L468.781031,8.98641975 L508.417234,8.98641975 L508.417234,0.437037037 L457.118535,0.437037037" id="E"></path>
                <path d="M136.722506,83.682716 C130.539027,83.682716 128.557648,85.2716049 128.557648,91.454321 L128.557648,95.0888889 C128.557648,101.27284 130.539027,102.866667 136.722506,102.866667 L157.988395,102.866667 L157.988395,110.385185 L134.607884,110.385185 L134.607884,106.997531 L127.851952,107.898765 L127.851952,108.788889 C127.851952,114.976543 129.887614,116.565432 136.074795,116.565432 L156.525186,116.565432 C162.708665,116.565432 164.750496,114.976543 164.750496,108.788889 L164.750496,104.265432 C164.750496,98.082716 162.708665,96.491358 156.525186,96.491358 L135.255595,96.491358 L135.255595,89.417284 L157.546718,89.417284 L157.546718,92.5395062 L164.302651,91.5851852 L164.302651,90.8802469 C164.302651,85.2123457 162.007904,83.682716 156.146429,83.682716 L136.722506,83.682716" id="S"></path>
                <path d="M172.822824,83.682716 L172.822824,89.5444444 L187.93361,89.5444444 L187.93361,116.565432 L195.584,116.565432 L195.584,89.5444444 L210.755239,89.5444444 L210.755239,83.682716 L172.822824,83.682716" id="T"></path>
                <path d="M248.906024,83.682716 L248.906024,110.385185 L227.092357,110.385185 L227.092357,83.682716 L219.445667,83.682716 L219.445667,108.788889 C219.445667,114.974074 221.423345,116.565432 227.606824,116.565432 L248.391557,116.565432 C254.57627,116.565432 256.553947,114.974074 256.553947,108.788889 L256.553947,83.682716 L248.906024,83.682716" id="U"></path>
                <path d="M279.173243,89.5444444 L292.754198,89.5444444 C299.961677,89.5444444 303.595027,93.1111111 303.595027,99.8049383 C303.595027,107.961728 298.746448,110.385185 289.05546,110.385185 L279.173243,110.385185 L279.173243,89.5444444 L279.173243,89.5444444 Z M271.521619,83.682716 L271.521619,116.565432 L290.7136,116.565432 C296.578776,116.565432 301.03626,115.991358 304.226699,114.019753 C308.816193,111.212346 311.5008,106.112346 311.5008,99.9296296 C311.5008,89.737037 304.995316,83.682716 292.691277,83.682716 L271.521619,83.682716 L271.521619,83.682716 Z" id="D"></path>
                <path d="M323.387836,83.682716 L330.626159,83.682716 L330.626159,116.565432 L323.387836,116.565432 L323.387836,83.682716 L323.387836,83.682716 Z" id="I"></path>
                <path d="M352.157301,89.5444444 L377.403219,89.5444444 L377.403219,110.385185 L352.157301,110.385185 L352.157301,89.5444444 L352.157301,89.5444444 Z M352.6656,83.682716 C346.484588,83.682716 344.50321,85.2716049 344.50321,91.4518519 L344.50321,108.788889 C344.50321,114.974074 346.484588,116.565432 352.6656,116.565432 L376.893687,116.565432 C383.077166,116.565432 385.052376,114.974074 385.052376,108.788889 L385.052376,91.4518519 C385.052376,85.2716049 383.077166,83.682716 376.893687,83.682716 L352.6656,83.682716 L352.6656,83.682716 Z" id="O"></path>
                <path d="M394.216559,83.7333333 L394.216559,84.345679 L396.173263,84.345679 L396.173263,89.5666667 L396.843181,89.5666667 L396.843181,84.345679 L398.797417,84.345679 L398.797417,83.7333333 L394.216559,83.7333333" id="T"></path>
                <path d="M404.951287,83.7333333 L402.826795,86.9160494 L400.70107,83.7333333 L400.036087,83.7333333 L400.036087,89.5666667 L400.675161,89.5666667 L400.675161,84.854321 L402.80212,87.9654321 L402.836665,87.9654321 L404.961157,84.8432099 L404.961157,89.5666667 L405.621205,89.5666667 L405.621205,83.7333333 L404.951287,83.7333333" id="M"></path>
            </g>
        </g>
    </g>
</svg>